<?xml version="1.0" standalone="no"?>
<!DOCTYPE svg PUBLIC "-//W3C//DTD SVG 20010904//EN"
 "http://www.w3.org/TR/2001/REC-SVG-20010904/DTD/svg10.dtd">
<svg version="1.0" xmlns="http://www.w3.org/2000/svg"
 width="284.000000pt" height="281.000000pt" viewBox="0 0 284.000000 281.000000"
 preserveAspectRatio="xMidYMid meet">

<g transform="translate(0.000000,281.000000) scale(0.100000,-0.100000)"
fill="#000000" stroke="none">
<path d="M1290 2708 c-192 -13 -388 -79 -568 -189 -115 -71 -307 -261 -386
-382 -72 -108 -138 -256 -172 -385 -23 -82 -27 -124 -31 -277 -6 -198 5 -290
53 -440 131 -410 475 -734 899 -847 116 -31 127 -32 320 -32 177 0 211 2 295
23 322 80 598 270 775 536 146 220 215 448 215 709 0 339 -120 645 -347 887
-276 293 -633 427 -1053 397z m365 -91 c235 -52 460 -179 626 -354 221 -233
332 -510 332 -833 1 -154 -17 -263 -64 -398 -187 -533 -731 -870 -1289 -797
-814 106 -1286 951 -950 1700 68 151 205 327 340 436 154 124 363 220 540 249
41 6 82 13 90 15 37 9 312 -4 375 -18z"/>
<path d="M1388 2408 c-2 -46 -4 -84 -3 -85 1 -2 12 -4 26 -5 20 -3 24 2 27 30
3 28 7 32 33 32 27 0 29 -3 29 -35 0 -30 3 -35 24 -35 21 0 24 6 30 53 12 100
9 117 -19 117 -21 0 -25 -5 -25 -30 0 -28 -3 -30 -36 -30 -36 0 -36 0 -30 35
7 34 6 35 -22 35 l-30 0 -4 -82z"/>
<path d="M1080 2439 c-30 -11 -60 -21 -67 -24 -9 -3 -5 -26 14 -82 14 -43 27
-80 29 -82 5 -5 117 29 128 40 5 4 6 15 3 23 -6 14 -11 14 -48 1 -51 -18 -49
-18 -49 -1 0 8 16 20 36 26 42 14 45 48 4 41 -46 -6 -55 -6 -60 3 -3 5 14 16
38 24 43 14 47 19 34 38 -5 8 -23 6 -62 -7z"/>
<path d="M1673 2375 c-32 -37 -59 -70 -61 -74 -5 -14 39 -21 57 -10 20 13 71
-5 71 -25 0 -13 20 -26 42 -26 10 0 8 174 -2 183 -3 2 -15 7 -27 11 -17 6 -32
-5 -80 -59z m67 -24 c0 -24 -3 -28 -20 -24 -18 5 -18 7 -3 29 20 31 23 30 23
-5z"/>
<path d="M867 2342 c-10 -10 -17 -33 -17 -50 0 -37 -12 -41 -32 -10 -13 20
-16 20 -36 7 -21 -15 -21 -15 25 -85 25 -38 47 -70 49 -72 1 -2 12 1 23 8 17
9 19 15 11 30 -5 10 -10 26 -10 34 0 15 3 15 37 1 33 -14 38 -14 62 1 l25 17
-57 25 -58 25 7 43 c7 48 -2 56 -29 26z"/>
<path d="M1896 2280 c-25 -38 -46 -74 -46 -79 0 -17 33 -22 49 -7 14 12 20 12
41 1 35 -20 57 -18 81 6 34 34 23 77 -32 116 l-46 33 -47 -70z m91 -11 c16
-16 5 -39 -17 -39 -25 0 -35 18 -20 35 15 18 22 19 37 4z"/>
<path d="M2080 2131 c-60 -55 -64 -60 -49 -76 14 -14 20 -15 37 -4 18 12 24
10 45 -9 27 -26 54 -28 85 -6 35 24 29 67 -15 115 l-38 40 -65 -60z m90 -26
c15 -18 5 -35 -20 -35 -10 0 -22 5 -25 10 -7 11 12 40 25 40 4 0 13 -7 20 -15z"/>
<path d="M612 2138 c-7 -7 -12 -16 -12 -20 0 -16 73 -168 80 -168 14 0 32 30
27 44 -9 22 32 69 54 63 16 -4 58 28 48 37 -7 6 -163 56 -175 56 -5 0 -15 -5
-22 -12z m82 -54 c13 -5 14 -9 5 -20 -9 -11 -15 -11 -25 -3 -27 22 -14 36 20
23z"/>
<path d="M2260 1945 c-19 -30 -38 -55 -41 -55 -3 0 -13 -6 -23 -13 -15 -11
-17 -17 -7 -35 11 -21 13 -21 41 -7 17 9 55 15 91 15 52 0 60 2 55 16 -3 9 -6
18 -6 20 0 2 -21 4 -46 4 l-46 0 22 35 c20 32 21 75 2 75 -4 0 -23 -25 -42
-55z"/>
<path d="M470 1922 c-29 -54 -30 -58 -13 -70 24 -18 134 -74 138 -70 12 14 24
48 17 48 -4 0 -16 6 -26 13 -15 11 -16 15 -2 49 14 33 14 37 -1 42 -19 8 -16
10 -37 -31 -11 -21 -21 -30 -31 -27 -19 8 -19 23 0 48 19 25 19 42 0 49 -10 4
-24 -12 -45 -51z"/>
<path d="M1238 1823 c-47 -54 -57 -220 -17 -300 19 -38 29 -48 49 -48 43 0 65
60 65 180 0 80 -4 108 -20 140 -22 45 -52 56 -77 28z"/>
<path d="M1516 1818 c-58 -90 -38 -336 30 -346 30 -4 52 27 71 103 14 58 15
78 5 139 -19 108 -70 159 -106 104z"/>
<path d="M1794 1476 c-17 -8 -34 -21 -37 -30 -9 -22 19 -32 40 -15 15 13 16
10 10 -36 -16 -118 -117 -249 -234 -302 -118 -54 -278 -39 -389 38 -86 59
-161 175 -172 264 -5 45 4 55 26 33 9 -9 15 -9 23 -1 18 18 -29 53 -71 53 -39
0 -80 -23 -80 -46 0 -16 26 -19 35 -4 13 21 22 8 34 -43 32 -144 138 -278 268
-340 62 -29 77 -32 163 -32 86 0 101 3 163 32 131 62 258 221 274 343 6 40 19
50 40 29 13 -13 33 -4 33 15 0 39 -76 64 -126 42z"/>
<path d="M396 1414 c-32 -31 -10 -94 33 -94 29 0 54 25 54 55 0 48 -55 72 -87
39z"/>
<path d="M2358 1419 c-25 -14 -24 -75 1 -89 41 -21 81 1 81 45 0 44 -43 67
-82 44z"/>
<path d="M483 1108 c-31 -12 -53 -27 -53 -36 0 -9 7 -13 20 -9 15 4 24 -2 36
-24 13 -25 20 -30 46 -27 44 4 55 27 38 77 -7 23 -18 41 -24 40 -6 0 -35 -10
-63 -21z m67 -43 c0 -29 -34 -36 -44 -9 -8 21 1 34 25 34 14 0 19 -7 19 -25z"/>
<path d="M2274 1122 c-16 -10 -46 -71 -42 -84 3 -8 110 -58 125 -58 11 0 0 31
-14 39 -14 8 -15 12 -4 25 7 9 21 16 31 16 10 0 21 7 24 16 5 13 2 15 -16 11
-15 -4 -28 1 -44 18 -24 26 -40 30 -60 17z m46 -46 c0 -24 -18 -38 -38 -32
-21 7 -20 33 1 48 14 8 37 -1 37 -16z"/>
<path d="M2176 944 c-16 -25 -27 -46 -25 -48 11 -10 104 -66 110 -66 6 0 59
75 59 85 0 16 -29 1 -40 -20 -14 -26 -40 -34 -40 -12 0 7 7 22 15 34 10 15 12
24 4 28 -10 7 -38 -21 -39 -37 0 -12 -30 -9 -30 2 0 6 7 22 16 36 10 15 13 29
8 34 -6 6 -21 -9 -38 -36z"/>
<path d="M547 940 c-20 -4 -40 -10 -43 -13 -10 -10 6 -26 20 -21 18 7 49 -42
41 -66 -3 -10 -1 -21 4 -24 12 -8 94 111 86 124 -7 11 -51 11 -108 0z m61 -40
c-11 -18 -28 -27 -28 -16 0 2 -3 11 -6 20 -5 12 0 16 20 16 24 0 25 -2 14 -20z"/>
<path d="M2105 850 c-3 -5 4 -28 15 -51 12 -22 19 -43 17 -46 -3 -2 -22 3 -43
12 -37 15 -70 14 -60 -3 8 -14 125 -54 136 -47 15 9 13 22 -16 86 -26 58 -37
69 -49 49z"/>
<path d="M661 796 c-25 -25 -40 -49 -36 -56 5 -8 10 -8 20 0 20 17 38 2 32
-26 -2 -13 2 -29 9 -35 11 -9 14 -8 14 5 0 10 14 23 34 31 18 8 37 22 40 31 8
20 -37 94 -57 94 -7 0 -32 -20 -56 -44z m78 -15 c16 -28 -13 -51 -36 -28 -18
18 -11 47 11 47 9 0 20 -9 25 -19z"/>
<path d="M1931 684 c-12 -15 -21 -34 -21 -44 0 -32 39 -70 71 -70 37 0 79 40
79 75 0 62 -89 89 -129 39z m97 -38 c10 -47 -60 -64 -80 -20 -11 23 -10 29 11
45 21 17 26 18 45 6 12 -8 22 -22 24 -31z"/>
<path d="M803 667 c-56 -34 -63 -52 -21 -52 32 -1 58 -21 58 -46 0 -11 6 -19
13 -19 9 0 19 26 29 70 12 59 12 70 0 75 -20 7 -21 7 -79 -28z m57 -21 c0 -21
-20 -30 -33 -17 -9 9 -8 14 3 21 21 14 30 12 30 -4z"/>
<path d="M949 573 c-13 -32 -25 -61 -27 -65 -2 -4 3 -8 10 -8 8 0 21 15 30 33
l16 32 7 -30 c13 -58 13 -58 50 -29 39 30 42 27 19 -18 -11 -21 -13 -33 -5
-41 7 -7 19 9 39 54 24 53 27 65 15 72 -9 6 -26 0 -48 -17 -18 -14 -36 -26
-39 -26 -3 0 -6 20 -6 44 0 39 -11 56 -34 56 -1 0 -13 -26 -27 -57z"/>
<path d="M1781 594 c-12 -15 -21 -35 -21 -46 0 -26 44 -68 72 -68 29 0 68 26
68 46 0 18 -14 18 -30 -1 -20 -24 -59 -19 -72 10 -9 21 -8 28 8 46 10 11 26
18 36 16 11 -3 18 0 18 9 0 25 -56 17 -79 -12z"/>
<path d="M1182 540 c-54 -22 -48 -109 9 -129 51 -18 99 13 99 64 0 51 -57 86
-108 65z m66 -32 c16 -16 15 -53 -3 -68 -19 -16 -45 -10 -61 15 -26 39 31 86
64 53z"/>
<path d="M1567 540 c-20 -4 -40 -10 -43 -13 -4 -3 -1 -35 6 -70 l12 -64 41 8
c23 4 47 8 54 9 7 0 10 6 7 13 -3 8 -18 11 -45 9 -32 -3 -40 -1 -37 9 3 8 18
16 33 19 37 6 30 25 -9 25 -43 0 -44 23 -2 31 21 3 36 12 36 20 0 8 -3 13 -7
13 -5 -1 -25 -5 -46 -9z"/>
<path d="M1350 455 c0 -51 3 -65 15 -65 8 0 15 6 15 14 0 27 19 27 44 -1 26
-28 48 -25 30 4 -8 12 -7 25 3 45 23 45 4 68 -57 68 l-50 0 0 -65z m77 34 c17
-17 4 -39 -23 -39 -19 0 -24 5 -24 25 0 27 26 35 47 14z"/>
</g>
</svg>
