<?xml version="1.0" standalone="no"?>
<!DOCTYPE svg PUBLIC "-//W3C//DTD SVG 20010904//EN"
 "http://www.w3.org/TR/2001/REC-SVG-20010904/DTD/svg10.dtd">
<svg version="1.0" xmlns="http://www.w3.org/2000/svg"
 width="1147.000000pt" height="1556.000000pt" viewBox="0 0 1147.000000 1556.000000"
 preserveAspectRatio="xMidYMid meet">

<g transform="translate(0.000000,1556.000000) scale(0.100000,-0.100000)"
fill="#000000" stroke="none">
<path d="M3417 15308 c-4 -67 -7 -297 -7 -513 l0 -391 110 -20 110 -20 0 177
0 177 84 -18 c46 -10 102 -23 123 -29 l40 -11 -1 -181 -1 -181 92 -32 91 -32
6 85 c23 316 39 524 57 716 11 121 21 235 22 254 l2 35 -100 18 c-55 10 -105
16 -111 14 -6 -2 -16 -80 -24 -198 -7 -106 -14 -195 -16 -199 -1 -3 -59 6
-128 20 l-126 26 5 60 c2 33 7 121 10 196 6 158 17 143 -115 154 -41 3 -84 8
-96 10 -20 4 -21 0 -27 -117z"/>
<path d="M2500 15413 c-30 -1 -83 -5 -117 -9 l-61 -5 -43 -155 c-35 -126 -44
-151 -54 -136 -6 9 -37 74 -69 145 l-59 127 -36 0 c-47 -1 -233 -19 -238 -23
-2 -2 45 -80 105 -173 60 -93 134 -212 166 -265 l57 -96 11 -234 c6 -129 11
-235 12 -235 3 -3 200 27 204 31 3 3 0 109 -6 236 l-11 230 64 152 c35 84 80
188 100 232 21 44 48 104 61 133 l24 52 -28 -2 c-15 -1 -52 -3 -82 -5z"/>
<path d="M1385 15330 c-44 -5 -111 -11 -149 -14 -38 -4 -71 -8 -73 -10 -2 -2
7 -66 21 -142 58 -313 76 -419 105 -619 16 -115 33 -236 36 -267 7 -54 9 -58
34 -58 36 0 190 26 197 33 5 5 -9 180 -22 273 -6 41 -6 41 32 49 120 22 204
84 245 179 62 144 19 393 -86 500 -74 74 -164 95 -340 76z m160 -276 c55 -26
81 -114 50 -173 -15 -30 -28 -38 -83 -51 -37 -9 -32 -19 -57 119 -20 109 -20
109 13 114 15 2 31 5 35 6 5 0 24 -6 42 -15z"/>
<path d="M10936 15324 c-54 -7 -99 -15 -100 -16 -1 -2 -24 -57 -51 -123 -26
-66 -103 -256 -170 -421 -68 -166 -126 -311 -130 -323 -6 -21 -4 -21 132 -21
l139 0 30 93 30 92 65 6 c35 4 103 7 151 8 l86 1 18 -52 c10 -29 25 -73 34
-98 l15 -45 135 4 c74 2 136 4 137 5 1 1 -23 67 -53 146 -31 80 -64 168 -74
195 -15 43 -142 351 -210 513 -26 60 -19 59 -184 36z m98 -413 c25 -58 45
-106 43 -107 -6 -5 -187 -15 -187 -9 0 10 92 226 95 223 2 -2 24 -50 49 -107z"/>
<path d="M210 15275 c0 -2 16 -71 35 -152 70 -300 114 -524 181 -930 l5 -33
144 0 145 0 0 33 c0 32 -25 219 -36 270 -5 25 -4 27 30 27 91 0 191 36 237 87
55 59 64 89 63 213 0 104 -3 123 -31 197 -61 161 -143 243 -278 279 -48 13
-495 21 -495 9z m464 -289 c71 -30 110 -164 59 -205 -20 -17 -111 -37 -121
-27 -4 5 -61 225 -62 239 0 12 89 8 124 -7z"/>
<path d="M10038 15227 l-98 -9 0 -143 0 -142 -82 -6 c-46 -4 -116 -7 -155 -7
l-73 0 0 89 c0 48 -3 109 -6 135 l-7 47 -131 -3 c-72 -2 -130 -6 -128 -10 1
-5 2 -179 2 -388 l0 -380 135 0 135 0 0 144 0 143 77 7 c42 3 111 6 154 6 l78
0 3 -147 3 -148 133 -3 132 -3 0 416 0 415 -37 -1 c-21 -1 -82 -6 -135 -12z"/>
<path d="M4623 15138 c-102 -239 -229 -544 -255 -613 -55 -148 -128 -358 -125
-361 6 -6 189 -75 191 -72 1 2 14 44 30 93 15 50 29 95 31 102 3 8 38 0 113
-24 l109 -37 7 -100 c10 -147 6 -140 89 -164 40 -11 87 -23 106 -27 32 -7 33
-6 27 21 -23 112 -52 500 -67 899 -7 171 -13 311 -14 312 -1 2 -202 42 -211
43 0 0 -14 -33 -31 -72z m92 -677 c-7 -6 -135 31 -135 40 0 7 48 120 91 214
l23 50 12 -150 c7 -82 11 -151 9 -154z"/>
<path d="M8155 15152 l-90 -3 -85 -134 c-47 -74 -89 -134 -93 -135 -5 0 -36
57 -69 128 -34 70 -62 128 -64 130 -1 2 -90 0 -198 -4 l-195 -7 26 -46 c56
-97 164 -252 243 -347 79 -95 82 -101 77 -139 -12 -83 -30 -385 -24 -391 5 -5
156 20 320 52 l27 6 0 152 c0 271 -6 252 128 413 63 76 118 140 121 143 4 3
42 47 84 98 l78 92 -98 -2 c-54 -1 -138 -4 -188 -6z"/>
<path d="M6563 15113 l-111 -4 -31 -127 c-82 -345 -139 -633 -171 -866 -12
-82 -20 -156 -18 -166 3 -15 17 -14 177 11 95 15 176 31 181 36 4 4 15 76 24
158 10 83 23 155 29 161 7 6 46 17 87 24 297 49 491 203 530 421 14 76 7 136
-25 205 -25 56 -64 91 -141 126 -45 21 -64 23 -234 24 -102 0 -235 -1 -297 -3z
m300 -285 c49 -26 58 -61 31 -128 -12 -28 -29 -48 -58 -64 -41 -25 -161 -54
-173 -43 -7 7 24 192 37 225 9 20 17 22 75 22 37 0 76 -5 88 -12z"/>
<path d="M5397 15087 c-2 -12 -30 -126 -61 -254 -31 -127 -72 -311 -91 -407
-39 -200 -89 -525 -82 -533 6 -5 119 -19 209 -26 l57 -4 6 51 c9 80 25 186 36
241 l10 51 95 11 c298 35 497 286 482 606 -3 77 -8 100 -32 143 -51 94 -115
123 -286 130 -372 15 -337 16 -343 -9z m312 -333 c26 -21 31 -33 31 -68 0 -55
-36 -125 -79 -153 -45 -30 -145 -34 -137 -5 2 9 14 64 26 122 12 58 23 111 25
118 3 7 23 12 54 12 39 0 56 -6 80 -26z"/>
<path d="M0 14324 l0 -141 53 -7 c106 -12 103 -20 43 102 -29 59 -62 125 -74
147 l-21 40 -1 -141z"/>
<path d="M2816 13814 c-3 -9 -6 -26 -6 -40 0 -65 -58 -308 -111 -468 -33 -98
-58 -180 -56 -182 2 -2 67 -1 144 3 l140 6 29 91 30 91 145 6 c165 7 222 23
275 75 35 35 64 112 64 169 0 92 -55 184 -132 223 -69 34 -134 42 -333 42
-158 0 -184 -2 -189 -16z m369 -209 c61 -60 0 -125 -118 -125 l-53 0 15 75 15
75 59 0 c48 0 62 -4 82 -25z"/>
<path d="M8900 13819 c-52 -5 -122 -12 -155 -16 l-60 -8 -7 -40 c-4 -22 -17
-100 -29 -174 -16 -108 -70 -348 -105 -467 -5 -21 -5 -21 58 -8 35 7 104 19
155 25 l92 12 29 91 29 91 119 12 c188 19 263 44 339 114 102 95 97 251 -12
323 -81 53 -213 66 -453 45z m199 -190 c61 -21 61 -83 1 -114 -25 -13 -159
-37 -167 -31 -1 1 3 33 9 70 9 53 16 70 32 76 30 12 88 12 125 -1z"/>
<path d="M9746 13798 c-3 -18 -13 -78 -21 -133 -18 -117 -52 -256 -100 -411
-19 -62 -35 -116 -35 -121 0 -8 211 -36 285 -37 30 -1 30 0 55 97 l25 97 130
0 c148 0 225 15 288 58 89 60 128 183 92 292 -23 70 -84 130 -161 161 -55 21
-76 23 -306 27 l-247 4 -5 -34z m379 -182 c46 -20 64 -58 44 -94 -21 -39 -55
-52 -133 -52 -66 0 -68 1 -62 23 3 13 8 49 12 80 l7 57 49 0 c27 0 64 -7 83
-14z"/>
<path d="M10547 13798 c4 -7 74 -114 156 -238 l149 -225 -7 -80 c-3 -44 -12
-129 -20 -190 -8 -60 -11 -112 -7 -115 8 -7 283 -52 288 -48 1 2 8 93 14 202
l12 200 75 95 c72 92 263 370 263 384 0 4 -74 7 -163 7 l-164 0 -58 -112 c-83
-162 -79 -158 -103 -112 -11 22 -38 82 -61 135 l-42 96 -67 7 c-37 3 -113 6
-170 6 -80 0 -101 -3 -95 -12z"/>
<path d="M2197 13751 l-87 -16 -93 -185 c-96 -192 -201 -371 -319 -547 -37
-56 -68 -104 -68 -107 0 -2 46 11 103 29 l102 32 42 64 c23 35 48 72 55 82 8
11 50 27 108 42 135 35 130 36 130 -36 l0 -61 28 6 c15 3 67 13 116 22 l89 17
-7 70 c-10 107 -53 391 -76 501 -11 54 -20 100 -20 102 0 5 4 5 -103 -15z
m-22 -377 l7 -70 -70 -15 -71 -15 12 21 c42 74 103 163 109 157 3 -4 10 -39
13 -78z"/>
<path d="M3716 13703 c-3 -21 -11 -87 -16 -148 -13 -126 -32 -260 -61 -424
-11 -63 -18 -120 -15 -126 2 -7 16 -15 30 -19 91 -23 93 -20 -80 -112 -87 -48
-203 -113 -257 -146 -96 -58 -100 -59 -151 -53 l-52 7 -13 -51 c-11 -43 -20
-56 -64 -87 -335 -238 -656 -537 -908 -844 -336 -410 -613 -922 -786 -1449
-26 -79 -48 -140 -49 -135 -2 5 -20 133 -40 284 -20 151 -37 276 -38 277 -3 3
-205 -83 -212 -89 -2 -3 4 -75 16 -159 37 -278 43 -339 38 -345 -9 -8 -227
-84 -242 -84 -9 0 -20 62 -40 213 -15 116 -29 228 -32 249 l-5 36 -67 -19
c-37 -11 -88 -24 -114 -30 -41 -9 -48 -14 -48 -35 0 -54 173 -1310 181 -1319
9 -9 221 49 226 62 3 7 -9 113 -26 234 -18 122 -29 224 -26 228 9 8 249 90
253 86 2 -2 11 -57 21 -122 16 -113 16 -126 -1 -258 -43 -344 -42 -709 3
-1050 23 -175 31 -571 16 -797 l-8 -117 87 30 c105 35 111 35 120 7 25 -85
141 -356 226 -530 l100 -206 -61 -121 c-34 -67 -58 -121 -53 -121 4 0 48 13
97 30 49 16 96 30 105 30 10 0 38 -37 73 -98 31 -53 103 -172 160 -263 l103
-166 -36 -108 -37 -108 -22 39 c-11 21 -41 80 -66 131 l-44 92 -43 -13 c-24
-7 -92 -28 -153 -46 -60 -19 -112 -35 -114 -36 -2 -2 71 -100 162 -219 189
-247 168 -190 188 -503 10 -153 15 -182 27 -177 8 3 64 19 125 35 60 16 111
31 112 32 1 2 -4 64 -11 138 -8 74 -15 182 -16 240 -3 105 -3 105 38 189 l40
83 102 -156 c109 -168 106 -161 247 -580 61 -181 115 -326 159 -428 9 -21 13
-38 8 -38 -4 0 -4 -42 0 -92 11 -148 36 -578 44 -761 7 -165 7 -168 28 -163
12 3 77 6 145 6 l124 0 -7 154 -6 154 137 4 c148 4 190 16 240 70 30 31 53
100 53 155 0 37 7 54 45 102 48 64 125 136 173 163 l30 18 6 -73 c3 -39 10
-214 16 -387 6 -173 13 -364 16 -425 l6 -110 135 -65 c74 -36 139 -67 144 -68
6 -3 7 53 3 142 -4 80 -5 146 -2 146 3 0 45 -18 94 -39 157 -70 238 -75 293
-21 72 72 65 254 -15 417 -44 89 -148 204 -237 263 -34 23 -146 83 -249 135
l-186 94 37 14 c58 23 147 37 241 37 275 0 493 -164 807 -606 39 -54 104 -144
146 -199 l75 -100 -23 -45 c-47 -92 -49 -92 -78 -9 -37 107 -105 290 -109 293
-12 9 -319 186 -323 186 -7 0 10 -39 118 -260 52 -107 122 -254 156 -327 l61
-131 0 -229 0 -228 130 -68 130 -69 0 233 0 232 67 76 c37 42 72 82 79 90 11
12 19 9 54 -23 86 -77 272 -176 333 -176 15 0 57 14 94 30 116 53 232 138 353
260 112 113 154 164 394 475 135 174 216 272 232 279 8 3 10 -7 7 -34 l-6 -39
39 10 c22 6 87 24 147 41 123 35 113 20 122 180 l7 106 56 25 c85 37 138 54
225 67 123 20 186 9 351 -60 79 -33 173 -67 208 -76 233 -60 450 100 703 521
27 44 112 208 190 365 129 259 155 302 276 470 378 526 631 945 837 1390 l44
95 -6 -82 c-4 -69 -3 -83 9 -83 8 0 66 20 129 46 112 45 114 45 120 82 7 46 6
517 -3 672 -5 95 -2 136 16 235 95 518 95 1083 -2 1616 l-25 137 44 65 c69
103 81 154 81 342 0 144 -3 170 -28 259 -35 128 -77 205 -156 288 -76 81 -166
130 -270 148 l-71 12 -52 96 c-156 291 -350 574 -576 841 -40 47 -71 86 -69
87 1 1 23 -1 49 -5 l46 -8 4 168 c1 92 6 171 11 175 4 4 83 -7 175 -25 l168
-33 -1 -177 0 -176 140 -37 c77 -20 147 -37 155 -37 13 -1 15 32 16 232 1 239
13 358 55 551 10 49 17 92 14 94 -6 6 -193 48 -256 57 l-45 7 -17 -89 c-10
-49 -20 -113 -24 -142 l-6 -53 -31 6 c-17 4 -94 18 -171 32 -77 15 -142 28
-145 31 -4 3 16 105 47 250 6 25 -10 28 -179 41 l-97 8 -25 -91 c-43 -152 -55
-224 -68 -402 l-12 -172 -95 88 c-146 132 -263 229 -401 330 -69 50 -130 95
-137 101 -7 5 -14 10 -17 10 -3 0 -43 24 -88 53 -123 79 -210 128 -372 211
l-146 74 112 38 c62 20 118 39 125 41 7 3 25 -21 42 -55 l30 -60 143 46 c79
25 144 47 146 48 7 5 -122 238 -294 530 l-54 92 -147 -34 c-82 -19 -155 -37
-164 -39 -17 -6 -94 -160 -181 -365 -28 -63 -51 -116 -52 -118 -2 -1 -34 9
-72 24 -96 36 -270 91 -394 123 l-105 28 -8 61 c-5 36 -14 62 -20 62 -7 0 -76
-13 -154 -29 -136 -27 -146 -28 -220 -15 -226 40 -364 49 -738 48 -386 0 -433
-3 -737 -55 -85 -14 -123 -16 -143 -9 -42 16 -65 13 -65 -10 0 -19 -9 -23
-101 -45 -24 -6 -27 -2 -55 69 l-28 75 -113 47 c-63 26 -116 44 -119 41 -3 -3
24 -67 60 -143 36 -75 65 -138 64 -139 -3 -3 -136 -45 -140 -45 -2 0 -4 24 -6
53 -4 71 -29 163 -59 219 -40 73 -137 160 -208 188 -54 20 -285 100 -291 100
-1 0 -5 -17 -8 -37z m286 -274 c31 -22 58 -73 58 -107 0 -10 -9 -27 -20 -37
-18 -16 -24 -17 -72 -4 l-53 14 -3 84 -3 84 31 -7 c18 -3 45 -16 62 -27z
m3832 -184 l46 -70 -82 -26 c-46 -14 -95 -29 -111 -33 l-27 -6 56 111 c30 61
59 108 63 103 5 -5 29 -40 55 -79z m-1724 -70 c1470 -157 2787 -1036 3493
-2331 255 -469 416 -977 483 -1529 21 -179 30 -611 15 -805 -48 -629 -215
-1166 -552 -1771 -174 -312 -354 -581 -658 -984 -84 -111 -190 -269 -267 -396
-205 -342 -313 -470 -474 -565 -125 -74 -170 -87 -290 -88 -58 0 -159 4 -225
8 -280 20 -517 -79 -759 -318 -106 -104 -169 -180 -410 -495 -210 -275 -359
-424 -521 -518 -73 -42 -199 -93 -233 -93 -43 0 -196 79 -289 149 -152 114
-248 217 -514 551 -262 328 -404 462 -581 551 -120 60 -227 82 -368 76 -110
-5 -150 -13 -365 -74 -208 -59 -404 44 -572 300 -36 53 -112 195 -169 315
-175 362 -196 402 -271 511 -235 345 -482 715 -560 841 -411 662 -627 1234
-695 1845 -20 180 -17 682 6 865 88 732 317 1365 714 1975 332 511 799 980
1304 1309 630 411 1294 632 2068 690 110 8 549 -4 690 -19z m-2149 -77 c22 -6
39 -14 39 -18 0 -7 -72 -40 -85 -40 -3 0 -5 16 -5 35 0 40 -1 39 51 23z m-836
-9022 l30 -16 -45 3 c-42 2 -45 4 -48 32 -4 28 -3 29 15 14 10 -9 32 -24 48
-33z m1059 -185 c49 -45 78 -128 60 -175 -9 -23 -61 -20 -121 9 l-53 24 0 58
c0 32 -3 82 -6 111 l-7 52 49 -26 c27 -15 62 -39 78 -53z"/>
<path d="M4461 11999 c-157 -62 -299 -308 -391 -679 -74 -295 -104 -572 -97
-880 14 -575 165 -1123 367 -1327 130 -132 287 -142 413 -27 164 152 297 510
366 989 51 353 47 588 -15 965 -84 510 -236 854 -419 947 -69 36 -153 40 -224
12z"/>
<path d="M6793 12011 c-264 -68 -474 -606 -523 -1345 -23 -347 40 -816 156
-1165 131 -389 335 -565 545 -469 218 100 394 549 465 1188 65 594 -105 1414
-351 1688 -78 87 -194 128 -292 103z"/>
<path d="M2104 9085 c-129 -28 -254 -93 -354 -182 -109 -99 -142 -177 -104
-243 31 -52 106 -76 155 -49 11 5 52 43 92 83 69 70 158 125 227 141 l26 6 12
-135 c87 -963 602 -1916 1401 -2592 515 -437 1094 -709 1716 -806 121 -19 180
-22 435 -22 255 0 314 3 435 22 327 51 678 163 967 308 1070 536 1891 1619
2108 2779 21 116 50 347 50 404 0 32 1 33 30 27 69 -13 146 -62 229 -143 59
-58 93 -84 117 -89 88 -16 159 63 139 155 -15 68 -193 225 -320 280 -196 86
-453 81 -650 -13 -133 -63 -284 -202 -300 -275 -14 -67 32 -134 100 -147 51
-9 71 2 154 85 55 56 96 88 150 114 110 55 108 57 99 -70 -27 -395 -137 -790
-328 -1178 -180 -367 -391 -657 -686 -945 -457 -446 -1014 -749 -1624 -884
-421 -93 -919 -93 -1340 0 -277 61 -516 146 -774 275 -476 239 -882 582 -1223
1034 -211 279 -416 691 -522 1047 -61 206 -112 498 -124 706 l-3 63 25 -6 c67
-15 159 -73 226 -141 77 -78 101 -94 140 -94 83 0 142 83 116 163 -14 43 -137
168 -213 218 -159 102 -397 145 -584 104z"/>
<path d="M1548 13631 c-49 -10 -90 -19 -92 -22 -2 -2 -18 -76 -35 -164 -17
-88 -35 -163 -39 -166 -4 -4 -50 -14 -102 -24 -52 -9 -105 -19 -117 -22 -21
-5 -22 -3 -12 29 17 59 61 299 56 304 -4 5 -208 -15 -214 -20 -2 -1 -14 -65
-28 -142 -32 -175 -79 -348 -155 -565 -68 -195 -76 -180 75 -151 l90 17 50
144 50 145 114 23 c62 13 115 22 118 19 3 -3 -14 -62 -37 -131 -23 -69 -40
-128 -38 -130 2 -2 47 9 100 26 62 19 98 35 103 47 34 85 103 290 130 387 28
99 85 371 85 406 0 11 6 11 -102 -10z"/>
<path d="M0 13453 c0 -47 1 -84 3 -82 2 2 33 36 70 76 37 40 67 77 67 83 0 6
-28 10 -70 10 l-70 0 0 -87z"/>
<path d="M2122 12638 l-123 -31 -55 -91 c-31 -50 -66 -109 -79 -131 l-23 -39
-22 74 c-12 41 -24 83 -26 93 -3 9 -11 17 -18 17 -18 0 -229 -79 -240 -90 -9
-9 43 -109 124 -241 l48 -77 -6 -227 c-5 -221 -4 -228 14 -220 10 4 62 23 114
42 l95 34 -3 157 c-5 244 -2 264 73 386 60 99 165 246 204 284 37 36 73 92 60
91 -8 0 -69 -14 -137 -31z"/>
<path d="M10613 12343 c-165 -233 -281 -421 -362 -587 -28 -59 -51 -109 -49
-111 7 -6 307 -95 320 -95 9 0 27 33 47 85 17 46 35 86 39 89 9 5 353 -100
363 -112 4 -4 23 -56 42 -117 l35 -109 157 -44 c86 -24 158 -42 161 -39 2 2
-25 82 -62 178 -36 96 -117 314 -180 484 -63 171 -123 330 -132 355 l-18 44
-125 31 c-68 18 -134 35 -145 39 -19 6 -31 -7 -91 -91z m264 -390 c28 -71 50
-129 49 -130 -5 -6 -221 66 -221 73 0 12 108 184 116 184 3 0 28 -57 56 -127z"/>
<path d="M1235 12330 c-27 -10 -108 -38 -178 -63 -71 -25 -133 -49 -138 -54
-14 -14 -65 -222 -88 -363 -25 -151 -41 -331 -41 -462 0 -81 3 -98 15 -98 9 0
65 19 125 42 l110 43 0 152 0 153 58 28 c91 45 134 76 190 137 65 70 97 125
127 213 45 132 42 242 -8 277 -29 20 -109 18 -172 -5z m-41 -216 c20 -8 21
-65 2 -102 -8 -15 -27 -39 -43 -53 -30 -28 -92 -63 -99 -56 -4 4 24 178 30
184 3 4 79 31 88 32 3 1 13 -2 22 -5z"/>
<path d="M345 12100 c-33 -4 -124 -8 -202 -9 l-143 -1 0 -480 0 -480 58 0
c108 0 102 -9 102 161 0 169 -14 147 105 170 116 22 209 84 274 184 91 139
116 337 53 409 -40 44 -131 61 -247 46z m-7 -236 c16 -11 22 -25 22 -50 0 -74
-53 -123 -148 -138 l-44 -7 7 43 c22 144 26 157 54 161 57 9 88 6 109 -9z"/>
<path d="M10373 10708 c19 -35 47 -85 62 -113 155 -283 210 -381 280 -505 l82
-145 24 -323 c12 -177 25 -326 28 -331 4 -6 63 1 144 17 133 25 137 26 137 51
0 14 -9 154 -21 311 l-22 285 62 145 c63 146 154 325 218 433 20 32 34 60 32
61 -2 2 -84 16 -182 32 -154 24 -180 26 -188 14 -9 -15 -93 -271 -105 -322 -3
-16 -9 -28 -14 -28 -4 0 -46 93 -95 208 -48 114 -88 208 -89 209 -3 4 -346 63
-366 63 -20 0 -19 -4 13 -62z"/>
<path d="M10959 8438 l-116 -51 -37 -161 c-88 -379 -186 -711 -276 -930 -22
-55 -40 -103 -40 -108 0 -4 58 21 129 57 l129 64 32 83 c17 46 35 94 41 108
13 34 287 180 299 159 5 -7 14 -41 20 -76 7 -35 17 -63 24 -63 12 0 236 98
248 109 9 8 -17 109 -62 246 -49 148 -246 610 -261 612 -8 1 -66 -22 -130 -49z
m90 -497 c22 -51 41 -95 41 -97 0 -6 -171 -96 -176 -92 -2 3 12 54 31 114 19
60 35 112 35 116 0 12 20 61 24 57 2 -2 22 -46 45 -98z"/>
<path d="M206 8090 c12 -201 12 -660 0 -772 l-9 -88 146 0 c171 0 152 -17 166
149 9 109 15 121 61 121 35 0 135 27 179 47 60 29 135 112 161 178 18 47 23
80 24 155 0 161 -50 274 -148 335 l-50 30 -269 0 -270 0 9 -155z m435 -159
c24 -25 29 -38 29 -78 0 -77 -34 -111 -122 -123 l-48 -6 0 41 c0 23 -3 76 -6
118 l-7 77 62 0 c56 0 66 -3 92 -29z"/>
<path d="M11140 6994 l-135 -45 -85 -139 -85 -139 -28 92 c-16 51 -30 93 -31
95 -5 4 -271 -99 -281 -109 -6 -6 -6 -12 1 -17 22 -15 104 -123 144 -192 48
-80 48 -73 7 -250 -13 -58 -28 -125 -32 -149 l-7 -43 69 7 c143 14 134 8 154
110 9 50 29 136 43 193 l25 103 189 252 c204 273 207 277 195 277 -4 0 -69
-21 -143 -46z"/>
<path d="M1329 6987 l-116 -41 -12 -60 c-7 -34 -20 -91 -28 -128 l-15 -67 -82
-25 c-147 -45 -196 -55 -196 -43 0 7 13 63 29 125 19 73 25 112 17 112 -16 -1
-227 -48 -231 -52 -6 -7 -126 -468 -147 -565 -12 -57 -18 -106 -14 -110 3 -4
60 3 125 16 l119 23 22 111 c24 120 33 147 53 147 7 0 67 15 132 34 66 19 122
33 124 31 2 -2 -6 -55 -18 -116 -12 -62 -19 -114 -16 -117 3 -3 58 12 123 34
l117 39 31 175 c18 96 48 251 68 344 20 93 36 170 34 171 -2 2 -55 -16 -119
-38z"/>
<path d="M10250 6658 c-30 -4 -113 -25 -185 -46 -71 -22 -165 -47 -207 -57
-43 -9 -78 -21 -78 -26 0 -5 -9 -87 -19 -182 -11 -94 -22 -209 -26 -255 l-7
-84 119 8 c65 3 121 8 124 10 4 2 10 39 14 82 4 43 10 84 14 91 4 7 39 19 76
26 141 30 257 106 305 202 33 65 40 169 13 201 -23 29 -73 40 -143 30z m-86
-193 c15 -40 -48 -96 -126 -110 -42 -8 -44 -5 -32 67 7 43 31 56 105 57 33 1
49 -3 53 -14z"/>
<path d="M1150 5770 c-69 -22 -162 -49 -206 -61 l-82 -21 -6 -53 c-19 -163 48
-945 81 -945 16 0 254 67 260 73 2 3 -3 60 -12 128 -22 179 -23 174 28 189 76
22 160 71 217 126 101 96 136 193 128 352 -3 75 -9 100 -34 149 -59 116 -154
132 -374 63z m121 -251 c18 -18 21 -30 17 -75 -6 -65 -28 -93 -100 -124 -69
-30 -68 -33 -72 167 -1 21 6 29 34 39 54 19 97 17 121 -7z"/>
<path d="M88 5563 l-88 -4 0 -499 0 -500 121 0 122 0 -7 43 c-20 121 -34 252
-28 258 4 3 41 11 82 18 133 21 223 77 272 168 70 129 57 328 -28 440 -14 19
-50 46 -78 59 -54 25 -96 27 -368 17z m205 -263 c35 -28 45 -81 24 -126 -19
-39 -54 -59 -118 -67 l-46 -6 -7 52 c-3 29 -6 78 -6 110 l0 57 64 0 c49 0 69
-5 89 -20z"/>
<path d="M9356 5359 c-7 -215 -25 -411 -51 -544 -8 -44 -15 -92 -15 -107 l0
-28 119 0 c105 0 120 2 125 18 4 14 36 232 36 247 0 3 59 5 131 5 l132 0 -7
-77 c-4 -43 -9 -106 -13 -140 l-6 -61 44 -6 c24 -3 74 -8 111 -11 64 -5 68 -4
72 17 8 40 26 536 26 711 l0 167 -100 0 -100 0 0 -97 c0 -54 -3 -135 -7 -181
l-6 -83 -125 3 -125 3 2 178 2 177 -38 0 c-21 0 -74 3 -119 6 l-81 7 -7 -204z"/>
<path d="M10461 5363 c-59 -239 -124 -469 -171 -607 -22 -66 -39 -121 -37
-122 4 -4 168 -24 198 -24 23 0 28 5 34 38 3 20 11 59 17 85 l10 49 92 -7
c147 -10 136 -4 177 -108 41 -104 32 -99 185 -112 l85 -7 -39 74 c-123 229
-268 622 -313 846 l-13 62 -92 0 -92 0 -41 -167z m187 -291 c19 -53 36 -105
39 -114 5 -16 -2 -17 -63 -11 -38 3 -70 6 -71 7 -4 3 52 216 57 216 3 0 20
-44 38 -98z"/>
<path d="M11140 5408 c0 -146 13 -296 41 -473 24 -150 75 -385 86 -396 5 -4
52 -9 105 -11 l97 -3 0 267 0 267 -37 3 -37 3 -12 80 c-6 44 -12 93 -12 109
-1 28 -1 29 49 24 l50 -5 0 128 0 129 -165 0 -165 0 0 -122z"/>
<path d="M2076 4379 c-54 -15 -102 -32 -106 -36 -8 -9 -223 -1084 -217 -1089
1 -2 53 12 114 31 l111 35 21 112 c12 61 22 113 24 114 3 3 167 51 199 58 14
3 32 8 40 11 10 4 23 -21 47 -93 l32 -98 102 23 c56 12 110 23 120 23 9 0 17
6 17 14 0 19 -172 445 -268 663 -111 252 -116 263 -127 262 -5 -1 -55 -14
-109 -30z m142 -550 c10 -26 9 -27 -65 -48 -41 -12 -78 -20 -80 -17 -3 3 7 65
23 137 l29 132 42 -89 c23 -49 46 -101 51 -115z"/>
<path d="M8820 4225 c-52 -7 -127 -21 -166 -30 l-71 -16 -36 -167 c-52 -240
-105 -587 -92 -600 2 -3 50 7 107 21 57 14 119 28 139 31 l36 6 12 112 c7 62
15 117 18 124 2 7 42 17 91 24 279 38 377 99 412 255 16 70 -8 143 -60 188
-76 64 -189 80 -390 52z m138 -181 c24 -17 28 -44 11 -76 -13 -25 -79 -54
-143 -64 -48 -7 -49 -6 -43 17 3 13 9 45 12 72 4 27 14 51 24 57 26 15 114 12
139 -6z"/>
<path d="M9552 4008 c-30 -188 -56 -405 -64 -522 l-3 -49 130 -22 c72 -12 144
-25 161 -29 l31 -7 6 77 c4 42 7 99 7 127 l0 50 68 -9 c37 -5 112 -9 167 -8
141 1 194 28 236 119 23 49 24 100 3 171 -31 109 -110 192 -221 234 -57 21
-367 69 -449 70 l-40 0 -32 -202z m355 -23 c59 -9 103 -51 103 -98 0 -59 -47
-78 -152 -61 l-38 7 0 52 c0 80 10 116 29 111 9 -3 35 -8 58 -11z"/>
<path d="M1285 4138 c-55 -17 -102 -32 -103 -34 -2 -1 8 -86 23 -189 15 -102
25 -188 23 -190 -2 -2 -63 -19 -136 -39 l-132 -35 -5 22 c-2 12 -16 96 -30
187 -15 91 -27 166 -29 167 -2 3 -237 -45 -242 -49 -2 -2 10 -78 27 -168 37
-207 96 -616 105 -734 l7 -88 46 5 c25 3 79 13 119 22 l72 17 0 36 c0 20 -7
97 -16 171 -8 73 -14 134 -12 136 5 4 263 74 265 71 2 -1 10 -76 19 -167 9
-90 18 -166 20 -168 2 -2 53 11 114 29 l109 33 -5 56 c-24 274 -48 500 -76
702 -26 197 -34 239 -47 238 -9 0 -61 -14 -116 -31z"/>
<path d="M10363 4053 c18 -27 96 -133 171 -237 76 -104 146 -201 156 -215 18
-26 25 -80 46 -352 l6 -86 47 -11 c25 -6 93 -22 150 -36 l103 -24 -6 76 c-4
43 -18 140 -30 216 l-23 139 50 85 c50 86 141 278 152 324 l6 25 -146 23 c-80
12 -148 20 -152 17 -3 -4 -21 -52 -39 -108 -18 -56 -37 -106 -41 -110 -5 -5
-46 54 -91 131 -46 77 -84 140 -85 140 -1 0 -65 11 -141 25 -77 14 -146 25
-154 25 -9 0 -2 -17 21 -47z"/>
<path d="M7870 3906 c-133 -60 -110 -29 -236 -316 -116 -267 -310 -758 -301
-766 1 -2 57 29 123 68 l121 70 17 57 c10 31 27 81 38 112 l20 56 129 72 c71
40 133 70 137 67 5 -3 14 -30 22 -60 7 -30 16 -59 19 -65 4 -6 49 11 116 44
61 30 116 55 123 55 19 0 16 15 -46 190 -32 91 -80 230 -106 310 -27 80 -51
148 -55 152 -3 3 -58 -17 -121 -46z m5 -351 c16 -42 26 -77 24 -79 -3 -3 -140
-75 -161 -84 -9 -4 8 36 62 154 21 46 41 84 43 84 3 0 17 -34 32 -75z"/>
<path d="M7030 3532 c-63 -25 -118 -50 -121 -55 -3 -5 -12 -83 -19 -174 l-13
-165 -41 -17 c-64 -28 -245 -86 -250 -80 -3 2 -1 59 4 124 5 66 10 143 10 172
l0 51 -47 -12 c-27 -7 -85 -19 -130 -26 -83 -14 -83 -14 -83 -44 0 -17 -7
-139 -15 -271 -7 -132 -17 -333 -21 -447 -8 -243 -24 -222 138 -182 88 22 107
30 112 48 3 11 6 73 6 136 0 63 3 131 6 152 6 33 10 37 53 49 25 7 88 30 140
51 52 21 96 37 97 35 1 -1 -1 -72 -5 -157 -4 -85 -5 -157 -4 -160 2 -2 58 23
123 55 111 55 120 61 120 88 0 107 43 653 66 830 3 26 2 47 -3 46 -4 0 -60
-21 -123 -47z"/>
<path d="M9040 2832 c0 -100 43 -550 91 -948 l32 -261 90 -7 c99 -7 187 -8
187 -2 0 1 -11 99 -25 216 -14 117 -24 215 -21 217 6 6 285 -27 312 -37 18 -7
22 -24 38 -182 10 -95 20 -191 23 -214 l5 -41 140 -18 c76 -9 141 -15 143 -13
3 2 -6 114 -20 249 -26 268 -51 579 -63 791 -5 76 -11 140 -13 143 -10 9 -289
63 -293 56 -4 -7 7 -202 20 -353 4 -52 3 -78 -4 -78 -6 0 -70 9 -144 20 -73
11 -145 20 -159 20 l-25 0 -13 153 c-26 329 -20 294 -53 301 -16 3 -78 9 -139
12 l-109 7 0 -31z"/>
<path d="M3430 2208 l0 -614 123 -22 c67 -12 125 -22 130 -22 4 0 7 95 7 210
l0 210 28 -6 c15 -4 83 -26 152 -49 l125 -42 3 -204 3 -204 112 -34 c62 -18
121 -36 131 -39 19 -5 19 4 13 409 -4 228 -7 475 -7 550 l0 135 -127 62 -128
63 -3 -211 c-1 -115 -4 -210 -5 -210 -1 0 -38 15 -82 33 -44 19 -110 44 -147
56 l-68 23 0 218 0 218 -37 15 c-32 12 -82 28 -205 63 -17 5 -18 -29 -18 -608z"/>
<path d="M2438 2785 c-116 -25 -128 -30 -128 -48 0 -12 -98 -329 -104 -334 -1
-2 -27 63 -56 144 -29 82 -54 149 -56 151 -3 4 -249 -69 -265 -78 -8 -6 3 -34
38 -96 28 -49 90 -168 138 -263 l87 -175 -12 -274 c-6 -151 -10 -276 -7 -278
2 -2 58 4 123 13 l119 18 5 295 6 295 90 215 c50 118 112 264 138 323 25 60
46 111 46 113 0 9 -61 1 -162 -21z"/>
<path d="M8060 2611 l-135 -68 -42 -169 c-24 -93 -43 -177 -43 -186 0 -38 -20
-14 -86 102 l-67 119 -31 -18 c-17 -11 -84 -50 -149 -89 l-119 -69 148 -159
c81 -88 160 -172 175 -189 27 -29 28 -38 53 -271 14 -133 26 -246 26 -252 0
-6 57 9 128 32 118 40 127 45 125 67 -1 13 -16 129 -33 258 l-30 235 60 191
c33 105 86 269 119 363 36 104 55 172 48 172 -7 -1 -73 -31 -147 -69z"/>
<path d="M1525 2533 c-11 -3 -78 -22 -150 -43 -71 -20 -149 -43 -171 -49 l-41
-11 -7 -107 c-9 -140 -51 -548 -79 -780 l-23 -183 21 0 c28 1 244 36 248 41 2
2 11 77 19 167 9 90 18 166 21 168 2 2 34 13 70 23 203 56 322 212 342 448 8
92 -12 205 -46 260 -35 57 -123 85 -204 66z m-10 -303 c23 -25 17 -115 -11
-153 -18 -25 -105 -77 -129 -77 -11 0 -11 63 1 178 4 42 10 55 27 62 40 16 93
11 112 -10z"/>
<path d="M10640 2433 c-86 -220 -302 -924 -288 -938 6 -6 218 -37 262 -39 l38
-1 25 105 c14 58 27 107 29 109 2 2 78 -9 169 -25 l165 -29 37 -112 c20 -62
39 -116 42 -122 5 -8 291 -54 298 -48 1 1 -52 142 -118 312 -120 312 -183 475
-270 705 l-47 125 -108 27 c-60 15 -128 30 -150 34 l-42 6 -42 -109z m284
-447 c31 -76 54 -141 52 -143 -7 -7 -206 31 -206 39 0 4 16 52 36 105 20 54
41 109 46 122 5 13 10 22 12 20 2 -2 29 -67 60 -143z"/>
<path d="M383 2323 l-162 -3 -5 -33 c-3 -17 -10 -90 -16 -162 -6 -71 -18 -182
-26 -245 -14 -112 -80 -522 -91 -567 l-5 -23 150 0 149 0 24 147 c13 80 29
151 35 158 7 7 41 15 76 18 221 21 371 183 385 418 9 148 -27 231 -121 275
-43 20 -65 23 -141 22 -49 -2 -163 -4 -252 -5z m232 -274 c23 -23 24 -83 0
-128 -19 -37 -56 -58 -121 -66 l-50 -7 12 108 c7 60 13 110 13 111 1 1 13 4
29 6 44 7 96 -3 117 -24z"/>
<path d="M4834 2102 c-114 -267 -232 -567 -289 -734 -21 -61 -22 -67 -7 -73
74 -30 247 -84 253 -77 4 4 17 42 29 85 13 42 27 77 33 77 5 0 53 -16 106 -35
53 -20 115 -43 138 -51 40 -15 42 -17 74 -110 19 -56 40 -99 51 -105 18 -10
250 -70 254 -66 1 1 -27 69 -62 150 -64 149 -171 429 -267 700 l-52 148 -123
64 -122 64 -16 -37z m210 -501 c25 -69 44 -126 42 -128 -4 -4 -158 57 -169 67
-4 4 1 28 13 53 11 26 29 68 40 93 11 26 22 45 24 43 2 -2 25 -60 50 -128z"/>
<path d="M7120 2076 c-19 -8 -102 -47 -185 -88 -82 -40 -174 -84 -203 -96
l-53 -21 6 -168 c8 -210 42 -674 50 -682 6 -5 204 42 254 60 23 9 23 10 17
112 -4 56 -10 117 -13 135 -3 21 -1 32 7 32 7 0 49 18 93 40 191 93 287 237
287 429 0 104 -22 176 -70 223 -35 36 -41 38 -96 37 -33 0 -75 -6 -94 -13z
m-11 -307 c22 -40 7 -97 -39 -140 -34 -32 -105 -68 -114 -57 -2 1 -7 44 -10
94 l-7 91 48 21 c62 28 103 25 122 -9z"/>
<path d="M5697 1668 c4 -157 22 -530 30 -629 l6 -76 101 -12 c55 -6 121 -12
146 -13 l45 -3 -3 75 c-1 41 -5 92 -8 113 l-6 37 69 0 c152 0 278 66 336 174
18 33 22 58 22 131 0 81 -3 95 -30 144 -31 56 -77 94 -136 112 -19 6 -110 15
-204 19 -148 7 -251 21 -346 45 l-25 6 3 -123z m352 -148 c74 -10 111 -38 111
-82 0 -61 -40 -88 -130 -88 l-47 0 -7 53 c-8 71 -8 127 2 127 4 0 36 -5 71
-10z"/>
<path d="M2820 395 l0 -395 304 0 303 0 47 50 c85 91 117 212 96 367 -19 148
-71 252 -156 312 -76 55 -111 61 -366 61 l-228 0 0 -395z m410 68 c38 -22 55
-57 55 -113 0 -85 -39 -122 -137 -133 l-48 -5 0 134 0 134 51 0 c30 0 63 -7
79 -17z"/>
<path d="M8715 781 c-27 -3 -50 -10 -50 -16 0 -15 26 -257 31 -285 2 -13 11
-112 19 -220 9 -107 19 -210 21 -227 l5 -33 299 0 299 0 34 34 c54 53 80 119
85 215 6 112 -12 209 -58 308 -45 97 -107 163 -188 201 -55 26 -63 27 -252 28
-107 1 -217 -1 -245 -5z m391 -320 c54 -33 83 -137 54 -192 -16 -29 -64 -49
-118 -49 l-49 0 -6 74 c-4 40 -10 99 -13 130 l-7 56 54 0 c35 0 65 -7 85 -19z"/>
<path d="M9691 715 c10 -79 57 -598 61 -665 l3 -45 307 -3 306 -2 29 24 c72
60 110 190 93 320 -23 183 -105 309 -246 376 -70 34 -149 45 -405 56 l-156 7
8 -68z m403 -256 c54 -15 93 -59 102 -115 13 -86 -34 -134 -130 -134 -25 0
-46 1 -47 3 -6 29 -25 244 -22 250 6 10 52 9 97 -4z"/>
<path d="M2100 747 c-63 -4 -118 -11 -121 -15 -3 -4 -27 -70 -52 -147 -25 -77
-79 -239 -121 -360 -42 -121 -76 -221 -76 -222 0 -2 159 -3 354 -3 l354 0 -20
63 c-30 97 -143 492 -168 592 -13 50 -26 92 -29 95 -3 3 -58 2 -121 -3z m86
-704 c-2 -2 -44 -2 -93 -1 l-90 3 50 143 50 144 44 -143 c23 -78 41 -144 39
-146z"/>
<path d="M3840 375 l0 -375 318 0 318 0 32 32 c91 95 107 285 35 437 -54 114
-174 204 -302 226 -45 8 -381 55 -391 55 -6 0 -10 -140 -10 -375z m385 39 c18
-8 41 -24 51 -35 21 -24 30 -108 14 -138 -15 -29 -68 -51 -123 -51 l-44 0 -7
92 c-11 155 -12 148 35 148 23 0 56 -7 74 -16z"/>
<path d="M10500 715 c0 -4 214 -347 338 -541 44 -68 52 -88 52 -127 l0 -47
135 0 135 0 0 46 c0 35 10 64 39 118 21 39 87 160 146 269 59 109 104 201 101
204 -6 6 -318 33 -324 28 -2 -1 -27 -71 -58 -156 -30 -84 -56 -155 -59 -157
-2 -3 -9 6 -14 19 -5 13 -30 69 -56 124 -25 55 -56 121 -67 147 -23 53 -5 48
-233 68 -126 11 -135 12 -135 5z"/>
<path d="M1235 688 c-55 -5 -101 -11 -103 -13 -3 -2 -13 -95 -24 -207 -12
-112 -21 -204 -22 -205 0 -1 -70 -5 -154 -9 l-153 -7 5 34 c3 19 13 97 21 174
9 77 18 154 21 171 l6 31 -129 -5 c-70 -2 -129 -6 -131 -7 -8 -7 -82 -578 -82
-632 0 -10 92 -13 425 -13 l425 0 0 63 c0 34 7 150 15 257 8 107 18 237 21
288 l7 92 -24 -1 c-13 -1 -69 -6 -124 -11z"/>
<path d="M7915 671 l-100 -16 -61 -240 c-33 -132 -72 -279 -85 -327 l-26 -88
354 0 c194 0 353 2 353 4 0 8 -167 409 -227 546 -68 156 -53 147 -208 121z
m134 -512 c29 -67 50 -123 49 -124 -2 -1 -45 -5 -96 -9 l-93 -6 7 23 c23 72
64 222 64 234 0 32 21 -3 69 -118z"/>
<path d="M4714 453 c56 -93 137 -220 179 -283 50 -74 77 -125 77 -142 l0 -28
130 0 c126 0 130 1 130 21 0 26 40 94 182 306 l108 162 -33 5 c-132 20 -283
34 -289 28 -4 -4 -28 -56 -53 -117 -26 -60 -51 -114 -56 -119 -5 -6 -37 50
-79 137 -38 81 -71 147 -72 147 -2 0 -68 11 -148 25 -80 14 -153 25 -162 25
-12 0 11 -45 86 -167z"/>
<path d="M7065 540 c-60 -10 -113 -18 -117 -19 -4 -1 -5 -22 -2 -48 3 -27 8
-101 12 -165 l7 -117 -80 -6 c-44 -4 -114 -5 -155 -3 l-75 3 -8 150 c-5 82 -9
150 -10 151 -1 1 -62 0 -136 -3 l-133 -6 6 -56 c3 -31 9 -138 12 -238 l7 -183
425 0 425 0 -8 142 c-15 284 -29 413 -45 414 -8 1 -64 -7 -125 -16z"/>
</g>
</svg>
